<svg width="696" height="246" viewBox="0 0 696 246" xmlns="http://www.w3.org/2000/svg"><title>logo</title><path d="M657.89 121.35c-4.42-.49-10.974-.354-14.288-.72-2.86-.188-4.286 1.03-5.36 3.752-3.66 8.197.734 15.91 5.766 15.906 7.065.696 14.53-6.522 13.88-18.94m19.813 1.332c-3.413 11.02-7.977 18.86-21.253 22.21-16.475 4.287-23.568.75-25.538-11.77-1.28-7.11 1.332-14.78 7.4-17.937 5.638-3.118 11.313-.77 18.622-2.285.45-4.853-.657-10.008-1.292-14.767-.74-8.47-4.09-16.71-8.644-23.753-.982-1.226-1.984-2.67-3.166-3.662-.96 4.023-2.855 9.88-5.996 16.5-3 6.674-5.948 13.994-11.36 21.9-4.19 10.44-10.494 23.168-12.023 23.475-1.953.17-7.637.23-9.45-.486-4.44-.706-6.396-5.568-7.23-10.09-.356-1.78-.628-4.17-.892-6.608-1.81 5.537-3.21 8.32-5.165 12.39-4.066 6.044-10.364 6.596-17.05 5.21-6.016-1.223-9.4-4.866-10.582-10.89-.482-3.02-.965-6.042-2.752-8.95-.735 1.595-1.47 3.193-1.97 4.987-1.358 4.496-2.95 8.793-3.874 13.25-2.41 12.466-20.868 19.112-32.58 10.292-1.91-1.5-3.27-3.22-4.175-5.15-4.1 3.252-18.212 6.346-21.433 7.608-7.628 2.854-15.02 5.91-22.355 9.614-11.744 5.842-15.018 10.943-26.42 3.187l5.042-2.41c-9.268-8.38-3.173-36.268-1.49-49.545 1.836-11.54 1.735-22.693 2.465-34.355.588-10.775 1.868-21.172.937-31.814-.59-6.73-3.142-28.392.51-34.18 5.36-8.785 12.82-3.53 16.43 2.72 4.964 9.193.76 21.16 1.888 31.565.847 12.18.59 24.24-.084 36.552.023 5.25.343 21.417-3.895 25.508 1.436 1.406 3.78 3.17 4.205 5.54.68 2.786-2.302 3.703-2.424 4.808.333 6.317-2.817 32.852 4.152 32.462 3.964-.347 32.223-12.737 41.173-12.04-.05-.46-.095-.923-.114-1.4-.43-7.403-.424-14.844-.635-22.266.084-1.54-.067-3.276-.238-5.23l3.89-18.068c1.686-8.244 3.352-16.705 5.256-24.97 1.704-8.026 1.704-8.026 9.485-9.145 7.128-1.06 9.338-.817 15.705 1.91l-1.632 3.863c-.537 1.36-1.51 2.757-1.612 4.08-.815 13.2-3.84 26.158-5.76 39.237-.63 5.307-.824 10.576-1.256 15.647-.046 1.973-.093 3.946-.573 5.96-1.14 4.475-.76 8.82 1.395 13.444 2.89-2.003 3.69-5.355 4.745-8.292 4.187-12.184 7.92-24.547 12.105-36.73 2.113-5.875 4.678-11.57 4.543-18.124.008-2.407 1.754-4.967 2.847-7.47 5.486.176 10.706-2.687 17.035-.395l-2.197 7.414c-.8 3.352-2.035 6.744-1.968 10.02.364 9.16.945 18.3 1.743 27.42.596 4.324 2.082 8.79 3.133 13.294l-.302 1.56c.415-.256.83-.512 1.226-.985 2.2-2.8 7.362-9.13 11.77-14.066a32.47 32.47 0 0 0-.174-.954c-.058-.652.185-7.895-.894-10.207-1.174-8.43-1.44-11.472.67-22.38 1.348-2.087 1.063-5.345 4.283-6.064 4.088-.797 8.1-2.46 12.748.634-3.3 7.29-1.965 15.053-1.064 22.852 1.098 7.562.096 23.625 1.847 31.132 3.687-5.81 7.702-13.305 11.642-18.08.26-1.89.58-4.08 1.07-6.667 1.884-8.48 5.04-19.916 9.575-35.632-.02-.217-.02-.217-.256-.414 3.88-3.184 8.732-2.735 13.03-1.14 11.493 3.808 20.61 10.452 24.93 22.328 2.27 5.928 4.824 15.115 3.973 27.882 6.637-1.674 10.544-7.05 18.29-16.043 1.31 14.986-9.93 24.065-17.992 26.96M609.37 54.473c.565-3.55.695-7.063 1.713-10.436 2.02-6.96 4.016-14.137 6.487-20.918 1.328-7.34-4.23-15.825-10.867-14.15-1.718.37-3.956 2.315-4.474 3.893-3.59 11.475-6.73 23.128-4.362 35.176 1.202 6.24 5.576 8.702 11.504 6.433M394.886 166.68c-.342-3.91-1.178-30.972-6.747-29.61-3.855.996-5.99 31.6-6.518 35.586-2.446 17.064-7.92 54.525 8.44 66.443 8.875-21.128 6.78-50.05 4.824-72.42m4.505-18.558c-1.005 11.03 3.618 21.35 4.153 32.462.594 16.8 6.03 61.404-18.162 65.052-43.403 6.643-21.14-91.593-19.407-114.285-4.376 10.013-9.33 33.425-21.463 37.33-12.66 4.112-20.73-6.31-24.634-17.147a27.96 27.96 0 0 1-1.406 2.138c-7.407 7.87-15.02 5.91-23.172.277-1.615-.952-3.108-3.01-3.477-4.73-2.165-7.25-4.313-14.284-1.21-21.34l4.78-12.89c1.556-4.732 2.64-9.86.728-16.696-2.2 2.382-3.84 3.62-4.793 5.235-8.84 16.53-18.604 32.484-24.45 50.72-.876 2.485-2.207 4.79-3.3 7.292-5.73.663-10.995-1.56-13.724-5.616a28.566 28.566 0 0 1-2.394 3.964c-7.408 7.87-15.02 5.908-23.17.276-1.617-.953-3.11-3.01-3.48-4.73-2.165-7.25-4.313-14.284-1.21-21.34l4.78-12.89c1.556-4.732 2.64-9.86.73-16.696-2.2 2.38-3.842 3.618-4.795 5.234-8.838 16.53-18.603 32.484-24.448 50.72-.876 2.485-2.207 4.79-3.3 7.292-7.8.902-14.753-3.524-15.597-10.672a43.983 43.983 0 0 1-.166-2.007c-3.64 8.583-6.887 13.8-9.7 19.284-5.236 7.68-16.21 7.327-20.86-.802-2.02-3.104-3.194-6.504-5.33-10.912-2.226 4.57-4.075 8.453-5.49 12.297-3.365 9.048-7.907 9.664-15.132 9.64-5.683.06-11.086-1.656-14.818-6.8-.747-1.03-3.597-16.098-2.677-25.588 2.06-13.968 5.56-21.497 8.57-29.637 1.054-2.937 2.308-6.11 3.818-8.87 1.313-2.522 3.172-3.777 6.23-3.827 4.836.234 9.556-.836 14.392-.602 3.276-.07 6.41.752 9.547 1.572.906.358 1.67 1.604 3.164 3.66-3.653.76-6.184 1.855-8.81 1.866-3.71.106-5.75 1.816-7.655 5.046-3.596 6.443-5.61 13.402-7.156 20.76-1.545 7.357-2.675 14.46-2.443 22.097l.55 6.3c1.804-1.91 2.813-2.874 3.37-4.017 3.32-7.074 6.206-14.11 9.564-20.75 3-5.734 6.472-11.07 9.726-16.39 1.33-2.303 3.19-3.56 5.853-3.137 1.105.124 2.172-.19 3.277-.066 9.18-.148 10.416 1.495 8.353 10.428-1.922 8.047-2.503 16.414-2.215 24.704.076.87.388 1.936.72 3.22 3.37-5.87 8.844-13.092 14.932-19.03-.007-13.41.768-31.58.768-31.58 1.21-1.202.782-3.572.828-5.545-.445-2.586-.127-8.96 1.063-10.377 1.207-1.2 11.234-1.64 12.323 3.298l1.175 8.433c-1.216 3.607.27 8.073.176 12.02-.13 3.514-.713 6.847-1.06 10.378l1.16.775c.99-1.18 2.237-1.946 2.992-3.325 5.86-10.58 13.332-20.204 21.987-28.84 1.802-1.91 4.293-3.44 6.843-4.32 4.05-1.23 6.157.337 9.284 3.565 3.402 3.86 4.395 7.713 3.728 12.586-1.478 10.634-1.377 21.785-4.176 32.316-1.018 3.37-1.98 7.394 2.726 11.14 3.45-3.17 7.55-8.555 11.21-13.848-.14-13.512.755-34.466.755-34.466 1.208-1.2.78-3.57.828-5.543-.446-2.59-.127-8.963 1.062-10.38 1.208-1.2 11.236-1.64 12.325 3.298l1.175 8.432c-1.217 3.608.27 8.073.176 12.02-.13 3.514-.714 6.847-1.06 10.378l1.16.775c.992-1.182 2.237-1.947 2.992-3.326 5.858-10.58 13.332-20.204 21.986-28.84 1.803-1.91 4.295-3.44 6.844-4.32 4.05-1.23 6.157.337 9.284 3.566 3.4 3.86 4.396 7.712 3.728 12.585-1.478 10.633-1.377 21.784-4.176 32.315-1.02 3.37-1.98 7.395 2.725 11.14 2.97-2.725 6.418-7.09 9.655-11.627-.558-7.83.38-16.034 1.024-23.882 1.08-10.16 2.75-13.59 14.62-10.47 11.4 2.722 6.324 9.73 6.272 19.146-.345 8.566-.038 17.074-.166 25.618-.28 6.808-1.455 15.884 7.587 9.183 3.7-2.728 6.51-10.634 8.34-14.733 3.338-6.858 6.442-13.913 8.875-21.127 2.11-5.876 2.192-12.45 4.107-18.086 4.58-12.656 22.31-7.643 22.835 5.88.334 6.317-3.638 13.448-.104 18.83 5.577 8.7 12.407-3.275 19.665-7.85-3.22 13.194-9.96 21.223-10.73 27.418M95.296 58.964c1.82 10.783 1.9 21.717.877 32.53-.366 3.314-.062 6.79-.9 9.707-2.903 11.854-1.84 24.016-3.636 35.99-1.516 10.198-4.844 19.68-8.843 29.003-1.235 3.39-2.63 7.45-8.174 6.623 2.533 3.936.333 6.318-1.884 8.48-1.208 1.2-2.653 2.202-3.624 3.6-5.653 7.935-15.425 8.79-22.567 2.193 1.44-6.036 6.19-9.296 10.464-12.952 3.048-2.674 5.407-5.726 6.605-9.55 3.168-8.81 6.12-17.604 8.833-26.596 1.178-4.04 1.035-8.187 1.543-12.39 2.153-17.914 5.194-35.686 5.354-53.863.035-4.6-.146-9.18-.763-13.722-.113-1.3-1.388-3.378-2.276-3.52-1.757-.065-4.126.36-5.117 1.543C60.05 68.83 51.635 82.7 48.972 99.78c-1.938 12.863-4.547 25.565-7.137 38.483-2.883 12.07-3.556 24.385-4.664 36.735-.545 3.77-.22 7.46-.787 11.01-.442 2.447-.866 5.11-2.47 6.782-1.19 1.416-3.898 2.967-5.872 2.92-9.234-.504-12.617-4.146-11.658-13.203 1.192-13.89-.44-27.535-1.42-41.235-.808-11.747-.966-23.55-1.775-35.297-.732-10.877-1.03-21.793-3.067-32.557-1.552-7.742-5.475-15.058-8.944-22.194-2.43-5.26-1.176-8.432 4.528-8.275 4.816.016 9.707.9 13.308 4.525 2.38 2.198 4.58 4.85 5.914 7.58 6.03 13.915 8.825 28.332 8.597 43.232.003 5.034-.23 9.87 2.614 14.872l4.998-12.913c3.188-8.594 5.467-17.547 9.344-25.764 3.517-7.31 8.122-14.717 13.273-20.856 5.748-6.85 14.435-7.61 22.264-5.67 4.91 1.104 8.37 5.615 9.278 11.007" fill="#FFF" fill-rule="evenodd"/></svg>